<svg width="63" height="63" viewBox="0 0 63 63" fill="none" xmlns="http://www.w3.org/2000/svg">
<circle cx="31.5" cy="31.5" r="31.5" transform="matrix(-1 0 0 1 63 0)" fill="#FFC24D"/>
<path d="M42.2632 32.4213L34.8669 27.3578C34.5254 27.1238 34.1812 27 33.8952 27C33.3421 27 33 27.4439 33 28.1868V39.1304C33 39.8725 33.3417 40.3155 33.8934 40.3155C34.1799 40.3155 34.5186 40.1915 34.8609 39.9569L42.2606 34.8936C42.7365 34.5674 43 34.1285 43 33.6571C43.0001 33.1861 42.7396 32.7473 42.2632 32.4213Z" fill="white"/>
<path d="M20.4959 28.4213L27.8921 23.3578C28.2337 23.1238 28.5778 23 28.8639 23C29.417 23 29.7591 23.4439 29.7591 24.1868V35.1304C29.7591 35.8725 29.4174 36.3155 28.8656 36.3155C28.5791 36.3155 28.2405 36.1915 27.8981 35.9569L20.4985 30.8936C20.0226 30.5674 19.7591 30.1285 19.7591 29.6571C19.759 29.1861 20.0195 28.7473 20.4959 28.4213Z" fill="white"/>
</svg>
