<svg width="19" height="19" viewBox="0 0 19 19" fill="none" xmlns="http://www.w3.org/2000/svg">
<path d="M9.49998 2.37516C7.97335 2.37516 6.48101 2.82785 5.21167 3.676C3.94233 4.52415 2.953 5.72965 2.36878 7.14007C1.78457 8.55048 1.63171 10.1025 1.92954 11.5998C2.22737 13.097 2.96251 14.4724 4.042 15.5519C5.12148 16.6314 6.49683 17.3665 7.99412 17.6643C9.49142 17.9622 11.0434 17.8093 12.4538 17.2251C13.8642 16.6409 15.0697 15.6516 15.9179 14.3822C16.766 13.1129 17.2187 11.6205 17.2187 10.0939C17.2164 8.04749 16.4024 6.08556 14.9554 4.63853C13.5083 3.19149 11.5464 2.37751 9.49998 2.37516ZM9.49998 16.6252C8.20822 16.6252 6.94547 16.2421 5.87141 15.5244C4.79735 14.8068 3.96022 13.7867 3.46589 12.5933C2.97155 11.3999 2.84221 10.0867 3.09422 8.81972C3.34623 7.55278 3.96827 6.38903 4.88169 5.47561C5.7951 4.5622 6.95886 3.94016 8.22579 3.68815C9.49273 3.43614 10.8059 3.56548 11.9994 4.05982C13.1928 4.55415 14.2128 5.39128 14.9305 6.46534C15.6482 7.53939 16.0312 8.80214 16.0312 10.0939C16.0292 11.8255 15.3404 13.4855 14.116 14.7099C12.8916 15.9343 11.2315 16.6231 9.49998 16.6252ZM10.0937 5.70906V10.0939C10.0937 10.2514 10.0311 10.4024 9.91976 10.5137L7.72763 12.7064C7.67247 12.7616 7.60698 12.8053 7.5349 12.8352C7.46282 12.865 7.38557 12.8804 7.30756 12.8804C7.22954 12.8804 7.15229 12.865 7.08021 12.8352C7.00813 12.8053 6.94264 12.7616 6.88748 12.7064C6.83231 12.6512 6.78855 12.5857 6.7587 12.5137C6.72884 12.4416 6.71348 12.3643 6.71348 12.2863C6.71348 12.2083 6.72884 12.1311 6.7587 12.059C6.78855 11.9869 6.83231 11.9214 6.88748 11.8662L8.90623 9.8475V5.70906C8.90623 5.55159 8.96878 5.40057 9.08013 5.28922C9.19148 5.17787 9.34251 5.11531 9.49998 5.11531C9.65745 5.11531 9.80847 5.17787 9.91982 5.28922C10.0312 5.40057 10.0937 5.55159 10.0937 5.70906ZM17.6747 5.13016C17.5739 5.25105 17.4292 5.32697 17.2725 5.34123C17.1157 5.35548 16.9597 5.30689 16.8387 5.20616L13.2762 2.23741C13.1596 2.13535 13.0874 1.99171 13.0753 1.83718C13.0631 1.68266 13.1118 1.5295 13.211 1.41042C13.3103 1.29134 13.4521 1.21579 13.6063 1.19991C13.7605 1.18402 13.9148 1.22906 14.0362 1.32541L17.5987 4.29416C17.7196 4.39496 17.7955 4.53966 17.8098 4.69642C17.824 4.85319 17.7755 5.0092 17.6747 5.13016ZM1.78123 5.34391C1.65925 5.34385 1.54024 5.30623 1.4404 5.23615C1.34055 5.16608 1.26472 5.06695 1.2232 4.95225C1.18168 4.83756 1.17649 4.71285 1.20835 4.59511C1.2402 4.47736 1.30755 4.37228 1.40123 4.29416L4.96373 1.32541C5.08515 1.22906 5.23944 1.18402 5.39363 1.19991C5.54782 1.21579 5.68968 1.29134 5.78891 1.41042C5.88814 1.5295 5.93687 1.68266 5.92469 1.83718C5.91251 1.99171 5.84039 2.13535 5.72373 2.23741L2.16123 5.20616C2.05457 5.2951 1.92011 5.34384 1.78123 5.34391Z" fill="#43AAFF"/>
</svg>
